PathFileType	4	(X/Y/Z)	C:\Users\WrightLab\Desktop\Jo\P2_Trial14.trc
DataRate	CameraRate	NumFrames	NumMarkers	Units	OrigDataRate	OrigDataStartFrame	OrigNumFrames
100.00	100.00	       15	19	mm	100.00	684	       781
Frame#	Time	Headset_Front			Headset_Back			Headset_Left			Headset_Right			Left_Shoulder			Right_Shoulder			Sternum			C7			Left Elbow			Right Elbow			Left Wrist			Right Wrist			Left ASIS			Right ASIS			S2			Left Knee			Right Knee			Left Ankle			Right Ankle			
		X1	Y1	Z1	X2	Y2	Z2	X3	Y3	Z3	X4	Y4	Z4	X5	Y5	Z5	X6	Y6	Z6	X7	Y7	Z7	X8	Y8	Z8	X9	Y9	Z9	X10	Y10	Z10	X11	Y11	Z11	X12	Y12	Z12	X13	Y13	Z13	X14	Y14	Z14	X15	Y15	Z15	X16	Y16	Z16	X17	Y17	Z17	X18	Y18	Z18	X19	Y19	Z19	

684	6.830													-497.53885	1388.90320	-955.42944	-239.90733	1368.54517	-760.69342				-422.50278	1369.36548	-763.53180	-621.91504	1097.41711	-978.20496	-187.05820	1086.99011	-620.85168				-32.98775	1090.36365	-751.84808							-491.38245	880.27490	-729.10895				-273.05350	481.28790	-652.97949				-371.49533	43.19944	-607.48523	
685	6.840													-492.06226	1386.42029	-969.51251	-237.84456	1365.02283	-768.08124				-420.77484	1366.22864	-774.94647	-615.12177	1094.50427	-994.12567	-190.61734	1081.36035	-629.63403				-33.48512	1081.95154	-756.13702							-490.43570	877.19464	-742.52985				-270.71628	479.36365	-657.66113				-371.54739	41.16901	-608.17822	
686	6.850													-485.28204	1384.03662	-983.45874	-235.72301	1362.06750	-775.85657				-418.63147	1363.94751	-787.68842	-607.98077	1091.56946	-1010.30353	-195.31178	1075.55164	-637.79742				-34.94994	1073.27869	-759.75549							-489.11127	874.15460	-756.92249				-267.74533	476.93692	-661.89099				-370.17816	38.57249	-609.95978	
687	6.860													-479.24872	1381.66321	-996.87305	-234.30809	1358.41113	-783.34656				-417.51938	1360.83032	-799.00311	-600.21777	1088.74414	-1026.23499	-199.78064	1070.25867	-645.71619				-36.24686	1065.56250	-765.34540							-487.72040	870.73932	-770.71252				-264.49329	474.46790	-665.27515				-368.96375	37.38695	-611.09351	
688	6.870													-472.48544	1379.75452	-1010.97290	-231.72833	1356.40588	-792.44867				-415.14249	1358.18335	-810.86639	-592.41040	1086.09167	-1043.21741	-204.51962	1065.79700	-654.95795				-37.72464	1056.79956	-769.08136							-487.06549	868.47626	-786.64520				-261.63123	472.76370	-669.73163				-368.81027	35.25452	-612.03009	
689	6.880													-465.91174	1376.87598	-1024.82178	-230.27954	1353.75476	-800.79102				-413.06790	1355.78638	-823.31927	-584.17163	1083.13672	-1059.76697	-208.88928	1061.07642	-664.45447				-40.18112	1049.02734	-774.03845							-485.46951	866.48975	-802.62042				-259.14471	471.30600	-674.43982				-367.18411	33.70787	-613.04816	
690	6.890													-459.63232	1375.83337	-1039.31091	-229.09187	1350.84717	-808.80457				-411.49368	1353.64587	-836.96490	-575.43561	1080.89941	-1077.29236	-215.55263	1056.81042	-675.25647				-42.49702	1041.16565	-778.22314							-484.04782	863.83087	-818.41077				-256.44223	469.63800	-678.53815				-366.73462	33.53048	-614.75146	
691	6.900													-452.69742	1373.75330	-1053.50000	-227.64545	1348.05591	-818.00519				-409.03040	1351.11011	-848.86206	-566.35852	1078.54504	-1095.08618	-218.81883	1053.58435	-682.35498				-45.24698	1033.93213	-783.68689							-483.25409	862.58148	-836.01312				-256.37482	468.59052	-682.94427				-365.38263	32.52362	-615.35211	
692	6.910													-445.73691	1372.88281	-1068.55969	-225.95645	1346.05334	-827.47144				-406.97330	1349.19897	-863.04504	-557.03009	1075.80469	-1112.76721	-224.36897	1050.33984	-691.66132				-48.22099	1027.34546	-788.88153							-482.14389	860.72314	-853.61011				-254.47238	469.14557	-687.44208				-361.32965	34.82216	-620.23615	
693	6.920													-438.98822	1371.50403	-1082.64954	-224.42451	1344.07813	-837.26447				-405.10687	1346.50220	-877.17450	-547.03058	1074.10559	-1131.18835	-230.30504	1047.39685	-701.48865				-51.45174	1021.51624	-794.91730							-480.40787	858.92261	-871.83655				-254.35802	469.43570	-691.64325				-360.41400	35.38807	-620.66290	
694	6.930													-431.49991	1370.40784	-1098.03979	-224.30748	1341.74072	-846.36768				-402.64548	1343.86353	-890.63470				-235.02298	1045.25378	-710.88989				-54.22751	1016.58130	-799.37622							-477.11804	856.47504	-890.27997				-253.59270	470.75851	-697.22278				-359.68231	36.03808	-621.00806	
695	6.940													-423.51825	1368.28064	-1112.29309	-223.45697	1339.62476	-856.28491				-399.87836	1341.65320	-905.57837				-241.05975	1042.44910	-719.46881				-58.01900	1011.16077	-805.36432							-474.18127	854.21466	-909.01471				-253.34442	472.04199	-702.94037				-358.24319	36.99479	-622.72571	
696	6.950													-417.32751	1368.20935	-1128.42761	-222.50227	1337.21106	-865.69116				-398.32751	1339.64307	-921.45898				-246.29903	1040.22583	-730.96808				-61.01870	1007.44012	-811.36310							-470.47961	851.94928	-928.52930				-253.58096	472.65649	-710.49396				-353.36111	40.10087	-626.94537	
697	6.960													-408.73886	1367.14038	-1144.04456	-222.10127	1334.97705	-876.77478				-396.95422	1337.08923	-935.71124				-251.10419	1039.43750	-740.83435				-64.27612	1003.13721	-817.76208							-465.74796	849.46100	-949.08362				-253.43410	472.84839	-717.24811				-351.68781	41.00835	-627.72150	
698	6.970													-400.04074	1365.89209	-1159.68250	-222.04088	1332.83960	-887.05750				-394.85080	1334.65881	-951.73352				-256.90347	1037.91919	-750.63379				-67.53097	1000.39825	-823.70605							-462.06537	847.53687	-969.40283				-254.47495	473.59436	-723.90375				-350.80911	40.87103	-628.41901	
